<svg xmlns="http://www.w3.org/2000/svg" xmlns:xlink="http://www.w3.org/1999/xlink" width="500" zoomAndPan="magnify" viewBox="0 0 375 149.999998" height="200" preserveAspectRatio="xMidYMid meet" version="1.0"><defs><g/><clipPath id="8783d4183a"><path d="M 9.65625 20.726562 L 104.90625 20.726562 L 104.90625 129.476562 L 9.65625 129.476562 Z M 9.65625 20.726562 " clip-rule="nonzero"/></clipPath></defs><path fill="#367dff" d="M 26.40625 92.953125 C 26.601562 93.304688 26.851562 93.65625 27.382812 93.925781 L 34.921875 98.28125 C 35.027344 98.34375 35.140625 98.386719 35.257812 98.417969 C 35.296875 98.425781 35.332031 98.425781 35.375 98.433594 C 35.453125 98.445312 35.53125 98.460938 35.609375 98.460938 L 35.621094 98.460938 L 35.621094 98.457031 C 35.847656 98.453125 36.066406 98.394531 36.257812 98.28125 L 53.230469 88.476562 L 53.242188 88.507812 L 54.613281 87.714844 C 56.265625 86.761719 58.296875 86.761719 59.949219 87.714844 L 67.367188 92 C 67.777344 92.238281 68.03125 92.679688 68.03125 93.15625 C 68.03125 93.632812 67.777344 94.074219 67.367188 94.3125 L 59.949219 98.59375 C 58.296875 99.546875 56.265625 99.546875 54.613281 98.59375 L 52.828125 97.5625 C 52.414062 97.324219 51.910156 97.324219 51.496094 97.5625 L 44.585938 101.554688 C 44.171875 101.792969 43.917969 102.230469 43.917969 102.710938 C 43.917969 103.1875 44.171875 103.625 44.585938 103.863281 L 54.613281 109.660156 C 56.265625 110.613281 58.296875 110.613281 59.949219 109.660156 L 84.511719 95.464844 C 86.292969 94.4375 86.292969 91.871094 84.511719 90.84375 L 59.949219 76.652344 C 58.296875 75.699219 56.265625 75.699219 54.613281 76.652344 L 35.621094 87.625 L 35.621094 62.632812 L 41.726562 59.09375 L 54.613281 51.625 C 55.023438 51.390625 55.457031 51.210938 55.910156 51.089844 C 57.273438 50.726562 58.722656 50.921875 59.949219 51.625 L 77.605469 61.828125 C 78.433594 62.304688 78.941406 63.1875 78.941406 64.140625 L 78.941406 78.707031 C 78.941406 79.183594 79.195312 79.628906 79.605469 79.863281 L 86.515625 83.855469 C 86.925781 84.09375 87.4375 84.09375 87.847656 83.855469 C 88.261719 83.617188 88.515625 83.175781 88.515625 82.699219 L 88.515625 58.605469 C 88.515625 57.652344 88.007812 56.773438 87.179688 56.292969 L 59.949219 40.5625 C 59.148438 40.097656 58.242188 39.855469 57.316406 39.847656 L 57.300781 39.847656 C 57.167969 39.847656 57.039062 39.863281 56.910156 39.871094 C 56.808594 39.878906 56.707031 39.878906 56.609375 39.890625 C 56.46875 39.910156 56.332031 39.941406 56.199219 39.96875 C 56.105469 39.992188 56.011719 40.003906 55.921875 40.023438 C 55.773438 40.0625 55.632812 40.117188 55.492188 40.167969 C 55.410156 40.199219 55.332031 40.21875 55.257812 40.246094 C 55.039062 40.335938 54.820312 40.441406 54.617188 40.5625 L 31.121094 54.136719 L 27.394531 56.25 C 26.5625 56.722656 26.046875 57.609375 26.046875 58.570312 L 26.046875 91.617188 C 26.046875 92.09375 26.175781 92.550781 26.40625 92.953125 " fill-opacity="1" fill-rule="nonzero"/><g clip-path="url(#8783d4183a)"><path fill="#004aad" d="M 54.679688 117.640625 C 55.472656 118.097656 56.367188 118.339844 57.28125 118.351562 C 58.191406 118.339844 59.089844 118.097656 59.882812 117.640625 L 92.695312 98.679688 C 94.34375 97.730469 95.355469 95.972656 95.355469 94.070312 L 95.355469 56.152344 C 95.359375 54.25 94.34375 52.492188 92.695312 51.542969 L 59.882812 32.585938 C 59.078125 32.121094 58.171875 31.875 57.242188 31.871094 C 56.316406 31.875 55.40625 32.121094 54.601562 32.582031 L 21.929688 51.457031 C 20.285156 52.40625 19.269531 54.164062 19.269531 56.066406 L 19.269531 67.023438 C 19.273438 67.5 19.015625 67.9375 18.609375 68.175781 L 11.648438 72.195312 C 11.242188 72.433594 10.730469 72.433594 10.320312 72.195312 C 9.910156 71.957031 9.65625 71.515625 9.65625 71.039062 L 9.65625 50.632812 C 9.660156 49.761719 9.875 48.90625 10.285156 48.140625 C 10.390625 47.636719 10.9375 47.046875 11.710938 46.4375 C 11.726562 46.421875 11.746094 46.410156 11.765625 46.394531 C 13.730469 44.863281 16.980469 43.285156 17.558594 42.949219 L 54.601562 21.550781 C 55.433594 21.074219 56.375 20.828125 57.332031 20.839844 L 57.375 20.839844 L 57.375 20.84375 C 58.253906 20.863281 59.117188 21.109375 59.882812 21.550781 L 102.246094 46.023438 C 103.890625 46.972656 104.90625 48.730469 104.90625 50.632812 L 104.90625 99.585938 C 104.90625 100.441406 104.796875 101.3125 104.421875 102.046875 C 104.371094 102.238281 103.859375 103.179688 102.800781 103.953125 C 102.402344 104.222656 101.695312 104.582031 101.035156 104.964844 L 60 128.671875 C 59.175781 129.148438 58.234375 129.394531 57.28125 129.382812 C 56.324219 129.394531 55.386719 129.148438 54.5625 128.671875 L 16.695312 106.796875 C 16.609375 106.746094 16.542969 106.683594 16.46875 106.621094 L 15.988281 106.347656 C 14.699219 105.664062 12.683594 104.625 11.589844 103.792969 L 11.5 103.726562 C 11.484375 103.714844 11.472656 103.703125 11.457031 103.691406 C 11.417969 103.660156 11.394531 103.628906 11.355469 103.59375 C 10.953125 103.257812 10.613281 102.863281 10.347656 102.421875 C 10.339844 102.417969 10.335938 102.410156 10.328125 102.402344 L 10.332031 102.402344 C 9.890625 101.660156 9.65625 100.816406 9.65625 99.957031 L 9.65625 82.03125 C 9.65625 81.554688 9.910156 81.117188 10.320312 80.878906 L 17.277344 76.855469 C 17.6875 76.621094 18.199219 76.621094 18.609375 76.855469 C 19.019531 77.09375 19.273438 77.535156 19.273438 78.011719 L 19.273438 94.175781 C 19.273438 96.078125 20.289062 97.835938 21.9375 98.789062 Z M 54.679688 117.640625 " fill-opacity="1" fill-rule="nonzero"/></g><g fill="#367dff" fill-opacity="1"><g transform="translate(113.713166, 91.599126)"><g><path d="M 35.953125 -17.875 C 35.953125 -13.976562 35.210938 -10.660156 33.734375 -7.921875 C 32.265625 -5.191406 30.265625 -3.109375 27.734375 -1.671875 C 25.210938 -0.234375 22.375 0.484375 19.21875 0.484375 C 16.039062 0.484375 13.1875 -0.234375 10.65625 -1.671875 C 8.132812 -3.117188 6.140625 -5.210938 4.671875 -7.953125 C 3.210938 -10.691406 2.484375 -14 2.484375 -17.875 C 2.484375 -21.769531 3.210938 -25.082031 4.671875 -27.8125 C 6.140625 -30.550781 8.132812 -32.640625 10.65625 -34.078125 C 13.1875 -35.515625 16.039062 -36.234375 19.21875 -36.234375 C 22.375 -36.234375 25.210938 -35.515625 27.734375 -34.078125 C 30.265625 -32.640625 32.265625 -30.550781 33.734375 -27.8125 C 35.210938 -25.082031 35.953125 -21.769531 35.953125 -17.875 Z M 28.28125 -17.875 C 28.28125 -21.664062 27.453125 -24.554688 25.796875 -26.546875 C 24.148438 -28.546875 21.957031 -29.546875 19.21875 -29.546875 C 16.46875 -29.546875 14.265625 -28.546875 12.609375 -26.546875 C 10.960938 -24.554688 10.140625 -21.664062 10.140625 -17.875 C 10.140625 -14.09375 10.960938 -11.195312 12.609375 -9.1875 C 14.265625 -7.1875 16.46875 -6.1875 19.21875 -6.1875 C 21.957031 -6.1875 24.148438 -7.1875 25.796875 -9.1875 C 27.453125 -11.195312 28.28125 -14.09375 28.28125 -17.875 Z M 28.28125 -17.875 "/></g></g></g><g fill="#367dff" fill-opacity="1"><g transform="translate(162.161703, 91.599126)"><g><path d="M 3.109375 0 L 3.109375 -35.734375 L 17.421875 -35.734375 C 21.359375 -35.734375 24.316406 -34.875 26.296875 -33.15625 C 28.285156 -31.445312 29.28125 -29.253906 29.28125 -26.578125 C 29.28125 -24.472656 28.671875 -22.769531 27.453125 -21.46875 C 26.234375 -20.175781 24.691406 -19.320312 22.828125 -18.90625 L 22.828125 -18.546875 C 24.179688 -18.492188 25.453125 -18.109375 26.640625 -17.390625 C 27.835938 -16.679688 28.804688 -15.691406 29.546875 -14.421875 C 30.296875 -13.160156 30.671875 -11.644531 30.671875 -9.875 C 30.671875 -7.976562 30.203125 -6.285156 29.265625 -4.796875 C 28.335938 -3.304688 26.957031 -2.132812 25.125 -1.28125 C 23.300781 -0.425781 21.050781 0 18.375 0 Z M 10.65625 -6.171875 L 16.828125 -6.171875 C 18.941406 -6.171875 20.476562 -6.578125 21.4375 -7.390625 C 22.394531 -8.210938 22.875 -9.289062 22.875 -10.625 C 22.875 -12.101562 22.347656 -13.3125 21.296875 -14.25 C 20.242188 -15.195312 18.8125 -15.671875 17 -15.671875 L 10.65625 -15.671875 Z M 10.65625 -20.78125 L 16.265625 -20.78125 C 17.804688 -20.78125 19.085938 -21.179688 20.109375 -21.984375 C 21.140625 -22.796875 21.65625 -23.910156 21.65625 -25.328125 C 21.65625 -26.609375 21.195312 -27.644531 20.28125 -28.4375 C 19.375 -29.226562 18.082031 -29.625 16.40625 -29.625 L 10.65625 -29.625 Z M 10.65625 -20.78125 "/></g></g></g><g fill="#367dff" fill-opacity="1"><g transform="translate(204.660068, 91.599126)"><g><path d="M 3.109375 0 L 3.109375 -35.734375 L 27.1875 -35.734375 L 27.1875 -29.515625 L 10.65625 -29.515625 L 10.65625 -21 L 25.953125 -21 L 25.953125 -14.765625 L 10.65625 -14.765625 L 10.65625 -6.234375 L 27.25 -6.234375 L 27.25 0 Z M 3.109375 0 "/></g></g></g><g fill="#367dff" fill-opacity="1"><g transform="translate(244.78534, 91.599126)"><g><path d="M 3.109375 0 L 3.109375 -35.734375 L 17.203125 -35.734375 C 21.265625 -35.734375 24.414062 -34.675781 26.65625 -32.5625 C 28.894531 -30.445312 30.015625 -27.613281 30.015625 -24.0625 C 30.015625 -21.625 29.46875 -19.535156 28.375 -17.796875 C 27.289062 -16.066406 25.734375 -14.765625 23.703125 -13.890625 L 31.28125 0 L 22.953125 0 L 16.171875 -12.671875 L 10.65625 -12.671875 L 10.65625 0 Z M 10.65625 -18.734375 L 15.796875 -18.734375 C 20.085938 -18.734375 22.234375 -20.507812 22.234375 -24.0625 C 22.234375 -27.726562 20.078125 -29.5625 15.765625 -29.5625 L 10.65625 -29.5625 Z M 10.65625 -18.734375 "/></g></g></g><g fill="#367dff" fill-opacity="1"><g transform="translate(287.05686, 91.599126)"><g><path d="M 3.109375 0 L 3.109375 -35.734375 L 10.65625 -35.734375 L 10.65625 -6.234375 L 25.984375 -6.234375 L 25.984375 0 Z M 3.109375 0 "/></g></g></g><g fill="#367dff" fill-opacity="1"><g transform="translate(324.966098, 91.599126)"><g><path d="M 1.015625 -35.734375 L 9.46875 -35.734375 L 17.625 -20.34375 L 17.96875 -20.34375 L 26.125 -35.734375 L 34.59375 -35.734375 L 21.546875 -12.640625 L 21.546875 0 L 14.046875 0 L 14.046875 -12.640625 Z M 1.015625 -35.734375 "/></g></g></g></svg>