<svg xmlns="http://www.w3.org/2000/svg" xmlns:xlink="http://www.w3.org/1999/xlink" width="500" zoomAndPan="magnify" viewBox="0 0 375 149.999998" height="200" preserveAspectRatio="xMidYMid meet" version="1.0"><defs><g/><clipPath id="d8f1c8d1d0"><path d="M 8.335938 25.210938 L 96.085938 25.210938 L 96.085938 124.960938 L 8.335938 124.960938 Z M 8.335938 25.210938 " clip-rule="nonzero"/></clipPath></defs><path fill="#f4f6fc" d="M 23.769531 91.460938 C 23.945312 91.785156 24.179688 92.105469 24.664062 92.351562 L 31.613281 96.347656 C 31.710938 96.402344 31.8125 96.445312 31.921875 96.472656 C 31.957031 96.480469 31.992188 96.480469 32.027344 96.488281 C 32.101562 96.5 32.171875 96.511719 32.246094 96.511719 L 32.257812 96.511719 L 32.257812 96.507812 C 32.464844 96.507812 32.667969 96.449219 32.84375 96.347656 L 48.476562 87.355469 L 48.492188 87.382812 L 49.753906 86.65625 C 51.273438 85.78125 53.148438 85.78125 54.667969 86.65625 L 61.503906 90.585938 C 61.882812 90.804688 62.117188 91.207031 62.117188 91.644531 C 62.117188 92.082031 61.882812 92.488281 61.503906 92.707031 L 54.667969 96.636719 C 53.148438 97.511719 51.273438 97.511719 49.753906 96.636719 L 48.109375 95.6875 C 47.726562 95.472656 47.261719 95.472656 46.882812 95.6875 L 40.515625 99.347656 C 40.136719 99.566406 39.902344 99.972656 39.902344 100.410156 C 39.902344 100.847656 40.136719 101.25 40.515625 101.46875 L 49.753906 106.785156 C 51.273438 107.65625 53.148438 107.65625 54.667969 106.785156 L 77.300781 93.765625 C 78.9375 92.824219 78.9375 90.46875 77.300781 89.527344 L 54.667969 76.507812 C 53.148438 75.636719 51.273438 75.636719 49.753906 76.507812 L 32.257812 86.574219 L 32.257812 63.648438 L 37.878906 60.40625 L 49.753906 53.554688 C 50.128906 53.339844 50.53125 53.175781 50.949219 53.0625 C 52.203125 52.730469 53.539062 52.910156 54.667969 53.554688 L 70.9375 62.910156 C 71.699219 63.347656 72.164062 64.15625 72.164062 65.03125 L 72.164062 78.394531 C 72.164062 78.832031 72.398438 79.238281 72.78125 79.453125 L 79.144531 83.117188 C 79.523438 83.335938 79.992188 83.335938 80.371094 83.117188 C 80.753906 82.898438 80.984375 82.492188 80.984375 82.054688 L 80.984375 59.957031 C 80.984375 59.082031 80.515625 58.277344 79.757812 57.835938 L 54.667969 43.40625 C 53.933594 42.984375 53.09375 42.761719 52.246094 42.753906 L 52.226562 42.753906 C 52.109375 42.753906 51.988281 42.765625 51.867188 42.773438 C 51.777344 42.78125 51.683594 42.78125 51.589844 42.792969 C 51.464844 42.808594 51.335938 42.839844 51.214844 42.863281 C 51.128906 42.882812 51.042969 42.894531 50.960938 42.914062 C 50.824219 42.949219 50.691406 43 50.5625 43.046875 C 50.488281 43.074219 50.414062 43.09375 50.347656 43.121094 C 50.144531 43.199219 49.945312 43.296875 49.757812 43.40625 L 28.109375 55.855469 L 24.679688 57.796875 C 23.910156 58.230469 23.433594 59.042969 23.433594 59.921875 L 23.433594 90.234375 C 23.433594 90.671875 23.554688 91.09375 23.769531 91.460938 " fill-opacity="1" fill-rule="nonzero"/><g clip-path="url(#d8f1c8d1d0)"><path fill="#f4f6fc" d="M 49.816406 114.105469 C 50.546875 114.523438 51.367188 114.746094 52.210938 114.753906 C 53.050781 114.746094 53.875 114.523438 54.605469 114.105469 L 84.839844 96.714844 C 86.355469 95.84375 87.289062 94.230469 87.289062 92.488281 L 87.289062 57.707031 C 87.289062 55.960938 86.355469 54.351562 84.839844 53.480469 L 54.605469 36.089844 C 53.867188 35.664062 53.03125 35.4375 52.175781 35.433594 C 51.324219 35.4375 50.484375 35.664062 49.742188 36.085938 L 19.644531 53.398438 C 18.128906 54.269531 17.191406 55.882812 17.191406 57.628906 L 17.191406 67.679688 C 17.195312 68.113281 16.960938 68.519531 16.582031 68.738281 L 10.171875 72.421875 C 9.796875 72.640625 9.328125 72.640625 8.949219 72.421875 C 8.570312 72.203125 8.335938 71.800781 8.335938 71.363281 L 8.335938 52.644531 C 8.339844 51.847656 8.539062 51.0625 8.914062 50.359375 C 9.011719 49.898438 9.515625 49.355469 10.226562 48.796875 C 10.242188 48.785156 10.261719 48.769531 10.28125 48.757812 C 12.089844 47.351562 15.085938 45.90625 15.617188 45.597656 L 49.742188 25.96875 C 50.507812 25.53125 51.378906 25.304688 52.257812 25.316406 L 52.296875 25.316406 L 52.296875 25.320312 C 53.109375 25.339844 53.902344 25.566406 54.605469 25.96875 L 93.636719 48.417969 C 95.152344 49.289062 96.085938 50.902344 96.085938 52.644531 L 96.085938 97.542969 C 96.085938 98.328125 95.988281 99.125 95.640625 99.800781 C 95.59375 99.976562 95.121094 100.839844 94.144531 101.550781 C 93.777344 101.796875 93.128906 102.128906 92.519531 102.476562 L 54.714844 124.222656 C 53.957031 124.660156 53.089844 124.882812 52.210938 124.871094 C 51.328125 124.882812 50.464844 124.660156 49.703125 124.222656 L 14.820312 104.160156 C 14.742188 104.109375 14.679688 104.054688 14.613281 104 L 14.167969 103.746094 C 12.984375 103.121094 11.125 102.164062 10.117188 101.402344 L 10.035156 101.339844 C 10.023438 101.332031 10.007812 101.320312 9.996094 101.3125 C 9.960938 101.28125 9.9375 101.253906 9.902344 101.222656 C 9.53125 100.914062 9.214844 100.550781 8.972656 100.144531 C 8.964844 100.140625 8.964844 100.132812 8.957031 100.128906 L 8.960938 100.125 C 8.550781 99.449219 8.335938 98.671875 8.335938 97.882812 L 8.335938 81.441406 C 8.335938 81.007812 8.570312 80.601562 8.949219 80.382812 L 15.359375 76.695312 C 15.734375 76.480469 16.207031 76.480469 16.582031 76.695312 C 16.964844 76.914062 17.195312 77.316406 17.195312 77.753906 L 17.195312 92.582031 C 17.195312 94.328125 18.132812 95.941406 19.652344 96.8125 L 49.816406 114.105469 L 49.816406 114.101562 Z M 49.816406 114.105469 " fill-opacity="1" fill-rule="nonzero"/></g><g fill="#f4f6fc" fill-opacity="1"><g transform="translate(102.106586, 93.705318)"><g><path d="M 37.625 -18.703125 C 37.625 -14.617188 36.851562 -11.144531 35.3125 -8.28125 C 33.769531 -5.425781 31.675781 -3.242188 29.03125 -1.734375 C 26.394531 -0.234375 23.421875 0.515625 20.109375 0.515625 C 16.785156 0.515625 13.800781 -0.238281 11.15625 -1.75 C 8.519531 -3.257812 6.429688 -5.445312 4.890625 -8.3125 C 3.359375 -11.1875 2.59375 -14.648438 2.59375 -18.703125 C 2.59375 -22.785156 3.359375 -26.253906 4.890625 -29.109375 C 6.429688 -31.972656 8.519531 -34.15625 11.15625 -35.65625 C 13.800781 -37.164062 16.785156 -37.921875 20.109375 -37.921875 C 23.421875 -37.921875 26.394531 -37.164062 29.03125 -35.65625 C 31.675781 -34.15625 33.769531 -31.972656 35.3125 -29.109375 C 36.851562 -26.253906 37.625 -22.785156 37.625 -18.703125 Z M 29.609375 -18.703125 C 29.609375 -22.671875 28.742188 -25.695312 27.015625 -27.78125 C 25.285156 -29.875 22.984375 -30.921875 20.109375 -30.921875 C 17.234375 -30.921875 14.929688 -29.875 13.203125 -27.78125 C 11.472656 -25.695312 10.609375 -22.671875 10.609375 -18.703125 C 10.609375 -14.742188 11.472656 -11.71875 13.203125 -9.625 C 14.929688 -7.53125 17.234375 -6.484375 20.109375 -6.484375 C 22.984375 -6.484375 25.285156 -7.53125 27.015625 -9.625 C 28.742188 -11.71875 29.609375 -14.742188 29.609375 -18.703125 Z M 29.609375 -18.703125 "/></g></g></g><g fill="#f4f6fc" fill-opacity="1"><g transform="translate(152.81707, 93.705318)"><g><path d="M 3.25 0 L 3.25 -37.40625 L 18.234375 -37.40625 C 22.359375 -37.40625 25.457031 -36.503906 27.53125 -34.703125 C 29.613281 -32.910156 30.65625 -30.613281 30.65625 -27.8125 C 30.65625 -25.613281 30.015625 -23.832031 28.734375 -22.46875 C 27.453125 -21.113281 25.835938 -20.21875 23.890625 -19.78125 L 23.890625 -19.421875 C 25.316406 -19.359375 26.65625 -18.953125 27.90625 -18.203125 C 29.15625 -17.460938 30.164062 -16.425781 30.9375 -15.09375 C 31.71875 -13.769531 32.109375 -12.1875 32.109375 -10.34375 C 32.109375 -8.351562 31.617188 -6.578125 30.640625 -5.015625 C 29.660156 -3.460938 28.210938 -2.238281 26.296875 -1.34375 C 24.390625 -0.445312 22.035156 0 19.234375 0 Z M 11.15625 -6.46875 L 17.609375 -6.46875 C 19.828125 -6.46875 21.4375 -6.894531 22.4375 -7.75 C 23.445312 -8.601562 23.953125 -9.726562 23.953125 -11.125 C 23.953125 -12.664062 23.398438 -13.929688 22.296875 -14.921875 C 21.191406 -15.910156 19.691406 -16.40625 17.796875 -16.40625 L 11.15625 -16.40625 Z M 11.15625 -21.75 L 17.03125 -21.75 C 18.644531 -21.75 19.988281 -22.171875 21.0625 -23.015625 C 22.132812 -23.867188 22.671875 -25.03125 22.671875 -26.5 C 22.671875 -27.851562 22.191406 -28.941406 21.234375 -29.765625 C 20.273438 -30.597656 18.921875 -31.015625 17.171875 -31.015625 L 11.15625 -31.015625 Z M 11.15625 -21.75 "/></g></g></g><g fill="#f4f6fc" fill-opacity="1"><g transform="translate(197.299582, 93.705318)"><g><path d="M 3.25 0 L 3.25 -37.40625 L 28.453125 -37.40625 L 28.453125 -30.890625 L 11.15625 -30.890625 L 11.15625 -21.96875 L 27.15625 -21.96875 L 27.15625 -15.453125 L 11.15625 -15.453125 L 11.15625 -6.515625 L 28.53125 -6.515625 L 28.53125 0 Z M 3.25 0 "/></g></g></g><g fill="#f4f6fc" fill-opacity="1"><g transform="translate(239.298208, 93.705318)"><g><path d="M 3.25 0 L 3.25 -37.40625 L 18.015625 -37.40625 C 22.265625 -37.40625 25.5625 -36.296875 27.90625 -34.078125 C 30.25 -31.867188 31.421875 -28.90625 31.421875 -25.1875 C 31.421875 -22.632812 30.847656 -20.445312 29.703125 -18.625 C 28.566406 -16.8125 26.9375 -15.453125 24.8125 -14.546875 L 32.75 0 L 24.015625 0 L 16.9375 -13.265625 L 11.15625 -13.265625 L 11.15625 0 Z M 11.15625 -19.625 L 16.53125 -19.625 C 21.019531 -19.625 23.265625 -21.476562 23.265625 -25.1875 C 23.265625 -29.019531 21.007812 -30.9375 16.5 -30.9375 L 11.15625 -30.9375 Z M 11.15625 -19.625 "/></g></g></g><g fill="#f4f6fc" fill-opacity="1"><g transform="translate(283.543284, 93.705318)"><g><path d="M 3.25 0 L 3.25 -37.40625 L 11.15625 -37.40625 L 11.15625 -6.515625 L 27.203125 -6.515625 L 27.203125 0 Z M 3.25 0 "/></g></g></g><g fill="#f4f6fc" fill-opacity="1"><g transform="translate(323.222414, 93.705318)"><g><path d="M 1.0625 -37.40625 L 9.921875 -37.40625 L 18.453125 -21.296875 L 18.8125 -21.296875 L 27.34375 -37.40625 L 36.203125 -37.40625 L 22.5625 -13.21875 L 22.5625 0 L 14.703125 0 L 14.703125 -13.21875 Z M 1.0625 -37.40625 "/></g></g></g></svg>